<svg width="512" height="512" viewBox="0 0 512 512" xmlns="http://www.w3.org/2000/svg">
  <!-- Black circular background -->
  <circle cx="256" cy="256" r="256" fill="#000000"/>
  <!-- Logo centered and scaled -->
  <g transform="translate(256, 256) scale(1.75) translate(-70.5, -86.5)">
    <g id="logo-top">
      <path d="M110.464 0C127.032 0.000247877 140.464 13.4316 140.464 30V31.4922H92.9033V58.2891H49.9043V86.3154H0V30C0 13.4315 13.4315 1.61637e-06 30 0H110.464Z" fill="white"/>
    </g>
    <g id="logo-bottom">
      <path d="M30.5372 172.649C13.9687 172.67 0.453776 159.257 0.350835 142.689L0.341564 141.196L47.9011 141.134L47.7346 114.338L90.7336 114.282L90.5595 86.2549L140.464 86.1897L140.814 142.505C140.917 159.073 127.569 172.522 111 172.544L30.5372 172.649Z" fill="#3B82F6"/>
    </g>
  </g>
</svg>

