<svg
  xmlns="http://www.w3.org/2000/svg"
  fill="none"
  viewBox="0 0 24 24"
  strokeWidth={1.5}
  stroke="currentColor"
  className="w-6 h-6"
>
  <path
    strokeLinecap="round"
    strokeLinejoin="round"
    d="M12 21a9.004 9.004 0 0 0 8.716-6.747M12 21a9.004 9.004 0 0 1-8.716-6.747M12 21c2.485 0 4.5-4.03 4.5-9S14.485 3 12 3s-4.5 4.03-4.5 9 2.015 9 4.5 9Zm8.716-6.747a9.004 9.004 0 0 0-1.432-2.5M3.284 14.253a9.004 9.004 0 0 1 1.432-2.5m0 0a9.004 9.004 0 0 1 2.5-1.432M4.716 11.753a9.004 9.004 0 0 0 2.5 1.432m0 0a9.004 9.004 0 0 1 1.432 2.5M7.216 13.253a9.004 9.004 0 0 0-1.432 2.5"
  />
</svg>
